<?xml version="1.0" encoding="utf-8" standalone="no"?>
<!DOCTYPE svg PUBLIC "-//W3C//DTD SVG 1.1//EN"
  "http://www.w3.org/Graphics/SVG/1.1/DTD/svg11.dtd">
<svg xmlns:xlink="http://www.w3.org/1999/xlink" width="720pt" height="216pt" viewBox="0 0 720 216" xmlns="http://www.w3.org/2000/svg" version="1.1">
 <metadata>
  <rdf:RDF xmlns:dc="http://purl.org/dc/elements/1.1/" xmlns:cc="http://creativecommons.org/ns#" xmlns:rdf="http://www.w3.org/1999/02/22-rdf-syntax-ns#">
   <cc:Work>
    <dc:type rdf:resource="http://purl.org/dc/dcmitype/StillImage"/>
    <dc:date>2025-04-23T14:12:21.368536</dc:date>
    <dc:format>image/svg+xml</dc:format>
    <dc:creator>
     <cc:Agent>
      <dc:title>Matplotlib v3.9.2, https://matplotlib.org/</dc:title>
     </cc:Agent>
    </dc:creator>
   </cc:Work>
  </rdf:RDF>
 </metadata>
 <defs>
  <style type="text/css">*{stroke-linejoin: round; stroke-linecap: butt}</style>
 </defs>
 <g id="figure_1">
  <g id="patch_1">
   <path d="M 0 216 
L 720 216 
L 720 0 
L 0 0 
z
" style="fill: #ffffff"/>
  </g>
  <g id="axes_1">
   <g id="patch_2">
    <path d="M 72.29 145.92751 
L 709.2 145.92751 
L 709.2 10.8 
L 72.29 10.8 
z
" style="fill: #ffffff"/>
   </g>
   <g id="patch_3">
    <path d="M 101.240455 145.92751 
L 107.335287 145.92751 
L 107.335287 145.92751 
L 101.240455 145.92751 
z
" clip-path="url(#p2374663952)" style="fill: #1f77b4; stroke: #000000; stroke-linejoin: miter"/>
   </g>
   <g id="patch_4">
    <path d="M 105.593906 145.92751 
L 111.688739 145.92751 
L 111.688739 145.92751 
L 105.593906 145.92751 
z
" clip-path="url(#p2374663952)" style="fill: #1f77b4; stroke: #000000; stroke-linejoin: miter"/>
   </g>
   <g id="patch_5">
    <path d="M 109.947358 145.92751 
L 116.042191 145.92751 
L 116.042191 145.92751 
L 109.947358 145.92751 
z
" clip-path="url(#p2374663952)" style="fill: #1f77b4; stroke: #000000; stroke-linejoin: miter"/>
   </g>
   <g id="patch_6">
    <path d="M 114.30081 145.92751 
L 120.395643 145.92751 
L 120.395643 145.92751 
L 114.30081 145.92751 
z
" clip-path="url(#p2374663952)" style="fill: #1f77b4; stroke: #000000; stroke-linejoin: miter"/>
   </g>
   <g id="patch_7">
    <path d="M 118.654262 145.92751 
L 124.749094 145.92751 
L 124.749094 145.92751 
L 118.654262 145.92751 
z
" clip-path="url(#p2374663952)" style="fill: #1f77b4; stroke: #000000; stroke-linejoin: miter"/>
   </g>
   <g id="patch_8">
    <path d="M 123.007714 145.92751 
L 129.102546 145.92751 
L 129.102546 145.92751 
L 123.007714 145.92751 
z
" clip-path="url(#p2374663952)" style="fill: #1f77b4; stroke: #000000; stroke-linejoin: miter"/>
   </g>
   <g id="patch_9">
    <path d="M 127.361165 145.92751 
L 133.455998 145.92751 
L 133.455998 145.92751 
L 127.361165 145.92751 
z
" clip-path="url(#p2374663952)" style="fill: #1f77b4; stroke: #000000; stroke-linejoin: miter"/>
   </g>
   <g id="patch_10">
    <path d="M 131.714617 145.92751 
L 137.80945 145.92751 
L 137.80945 145.92751 
L 131.714617 145.92751 
z
" clip-path="url(#p2374663952)" style="fill: #1f77b4; stroke: #000000; stroke-linejoin: miter"/>
   </g>
   <g id="patch_11">
    <path d="M 136.068069 145.92751 
L 142.162902 145.92751 
L 142.162902 145.92751 
L 136.068069 145.92751 
z
" clip-path="url(#p2374663952)" style="fill: #1f77b4; stroke: #000000; stroke-linejoin: miter"/>
   </g>
   <g id="patch_12">
    <path d="M 140.421521 145.92751 
L 146.516353 145.92751 
L 146.516353 145.92751 
L 140.421521 145.92751 
z
" clip-path="url(#p2374663952)" style="fill: #1f77b4; stroke: #000000; stroke-linejoin: miter"/>
   </g>
   <g id="patch_13">
    <path d="M 144.774973 145.92751 
L 150.869805 145.92751 
L 150.869805 145.92751 
L 144.774973 145.92751 
z
" clip-path="url(#p2374663952)" style="fill: #1f77b4; stroke: #000000; stroke-linejoin: miter"/>
   </g>
   <g id="patch_14">
    <path d="M 149.128424 145.92751 
L 155.223257 145.92751 
L 155.223257 145.92751 
L 149.128424 145.92751 
z
" clip-path="url(#p2374663952)" style="fill: #1f77b4; stroke: #000000; stroke-linejoin: miter"/>
   </g>
   <g id="patch_15">
    <path d="M 153.481876 145.92751 
L 159.576709 145.92751 
L 159.576709 145.92751 
L 153.481876 145.92751 
z
" clip-path="url(#p2374663952)" style="fill: #1f77b4; stroke: #000000; stroke-linejoin: miter"/>
   </g>
   <g id="patch_16">
    <path d="M 157.835328 145.92751 
L 163.930161 145.92751 
L 163.930161 145.92751 
L 157.835328 145.92751 
z
" clip-path="url(#p2374663952)" style="fill: #1f77b4; stroke: #000000; stroke-linejoin: miter"/>
   </g>
   <g id="patch_17">
    <path d="M 162.18878 145.92751 
L 168.283612 145.92751 
L 168.283612 145.92751 
L 162.18878 145.92751 
z
" clip-path="url(#p2374663952)" style="fill: #1f77b4; stroke: #000000; stroke-linejoin: miter"/>
   </g>
   <g id="patch_18">
    <path d="M 166.542232 145.92751 
L 172.637064 145.92751 
L 172.637064 145.92751 
L 166.542232 145.92751 
z
" clip-path="url(#p2374663952)" style="fill: #1f77b4; stroke: #000000; stroke-linejoin: miter"/>
   </g>
   <g id="patch_19">
    <path d="M 170.895684 145.92751 
L 176.990516 145.92751 
L 176.990516 145.92751 
L 170.895684 145.92751 
z
" clip-path="url(#p2374663952)" style="fill: #1f77b4; stroke: #000000; stroke-linejoin: miter"/>
   </g>
   <g id="patch_20">
    <path d="M 175.249135 145.92751 
L 181.343968 145.92751 
L 181.343968 145.92751 
L 175.249135 145.92751 
z
" clip-path="url(#p2374663952)" style="fill: #1f77b4; stroke: #000000; stroke-linejoin: miter"/>
   </g>
   <g id="patch_21">
    <path d="M 179.602587 145.92751 
L 185.69742 145.92751 
L 185.69742 145.92751 
L 179.602587 145.92751 
z
" clip-path="url(#p2374663952)" style="fill: #1f77b4; stroke: #000000; stroke-linejoin: miter"/>
   </g>
   <g id="patch_22">
    <path d="M 183.956039 145.92751 
L 190.050871 145.92751 
L 190.050871 145.92751 
L 183.956039 145.92751 
z
" clip-path="url(#p2374663952)" style="fill: #1f77b4; stroke: #000000; stroke-linejoin: miter"/>
   </g>
   <g id="patch_23">
    <path d="M 188.309491 145.92751 
L 194.404323 145.92751 
L 194.404323 145.92751 
L 188.309491 145.92751 
z
" clip-path="url(#p2374663952)" style="fill: #1f77b4; stroke: #000000; stroke-linejoin: miter"/>
   </g>
   <g id="patch_24">
    <path d="M 192.662943 145.92751 
L 198.757775 145.92751 
L 198.757775 145.92751 
L 192.662943 145.92751 
z
" clip-path="url(#p2374663952)" style="fill: #1f77b4; stroke: #000000; stroke-linejoin: miter"/>
   </g>
   <g id="patch_25">
    <path d="M 197.016394 145.92751 
L 203.111227 145.92751 
L 203.111227 145.92751 
L 197.016394 145.92751 
z
" clip-path="url(#p2374663952)" style="fill: #1f77b4; stroke: #000000; stroke-linejoin: miter"/>
   </g>
   <g id="patch_26">
    <path d="M 201.369846 145.92751 
L 207.464679 145.92751 
L 207.464679 145.92751 
L 201.369846 145.92751 
z
" clip-path="url(#p2374663952)" style="fill: #1f77b4; stroke: #000000; stroke-linejoin: miter"/>
   </g>
   <g id="patch_27">
    <path d="M 205.723298 145.92751 
L 211.818131 145.92751 
L 211.818131 145.92751 
L 205.723298 145.92751 
z
" clip-path="url(#p2374663952)" style="fill: #1f77b4; stroke: #000000; stroke-linejoin: miter"/>
   </g>
   <g id="patch_28">
    <path d="M 210.07675 145.92751 
L 216.171582 145.92751 
L 216.171582 145.92751 
L 210.07675 145.92751 
z
" clip-path="url(#p2374663952)" style="fill: #1f77b4; stroke: #000000; stroke-linejoin: miter"/>
   </g>
   <g id="patch_29">
    <path d="M 214.430202 145.92751 
L 220.525034 145.92751 
L 220.525034 145.92751 
L 214.430202 145.92751 
z
" clip-path="url(#p2374663952)" style="fill: #1f77b4; stroke: #000000; stroke-linejoin: miter"/>
   </g>
   <g id="patch_30">
    <path d="M 218.783653 145.92751 
L 224.878486 145.92751 
L 224.878486 145.92751 
L 218.783653 145.92751 
z
" clip-path="url(#p2374663952)" style="fill: #1f77b4; stroke: #000000; stroke-linejoin: miter"/>
   </g>
   <g id="patch_31">
    <path d="M 223.137105 145.92751 
L 229.231938 145.92751 
L 229.231938 145.92751 
L 223.137105 145.92751 
z
" clip-path="url(#p2374663952)" style="fill: #1f77b4; stroke: #000000; stroke-linejoin: miter"/>
   </g>
   <g id="patch_32">
    <path d="M 227.490557 145.92751 
L 233.58539 145.92751 
L 233.58539 145.92751 
L 227.490557 145.92751 
z
" clip-path="url(#p2374663952)" style="fill: #1f77b4; stroke: #000000; stroke-linejoin: miter"/>
   </g>
   <g id="patch_33">
    <path d="M 231.844009 145.92751 
L 237.938841 145.92751 
L 237.938841 145.92751 
L 231.844009 145.92751 
z
" clip-path="url(#p2374663952)" style="fill: #1f77b4; stroke: #000000; stroke-linejoin: miter"/>
   </g>
   <g id="patch_34">
    <path d="M 236.197461 145.92751 
L 242.292293 145.92751 
L 242.292293 145.92751 
L 236.197461 145.92751 
z
" clip-path="url(#p2374663952)" style="fill: #1f77b4; stroke: #000000; stroke-linejoin: miter"/>
   </g>
   <g id="patch_35">
    <path d="M 240.550913 145.92751 
L 246.645745 145.92751 
L 246.645745 145.92751 
L 240.550913 145.92751 
z
" clip-path="url(#p2374663952)" style="fill: #1f77b4; stroke: #000000; stroke-linejoin: miter"/>
   </g>
   <g id="patch_36">
    <path d="M 244.904364 145.92751 
L 250.999197 145.92751 
L 250.999197 145.92751 
L 244.904364 145.92751 
z
" clip-path="url(#p2374663952)" style="fill: #1f77b4; stroke: #000000; stroke-linejoin: miter"/>
   </g>
   <g id="patch_37">
    <path d="M 249.257816 145.92751 
L 255.352649 145.92751 
L 255.352649 145.92751 
L 249.257816 145.92751 
z
" clip-path="url(#p2374663952)" style="fill: #1f77b4; stroke: #000000; stroke-linejoin: miter"/>
   </g>
   <g id="patch_38">
    <path d="M 253.611268 145.92751 
L 259.7061 145.92751 
L 259.7061 145.92751 
L 253.611268 145.92751 
z
" clip-path="url(#p2374663952)" style="fill: #1f77b4; stroke: #000000; stroke-linejoin: miter"/>
   </g>
   <g id="patch_39">
    <path d="M 257.96472 145.92751 
L 264.059552 145.92751 
L 264.059552 145.92751 
L 257.96472 145.92751 
z
" clip-path="url(#p2374663952)" style="fill: #1f77b4; stroke: #000000; stroke-linejoin: miter"/>
   </g>
   <g id="patch_40">
    <path d="M 262.318172 145.92751 
L 268.413004 145.92751 
L 268.413004 145.92751 
L 262.318172 145.92751 
z
" clip-path="url(#p2374663952)" style="fill: #1f77b4; stroke: #000000; stroke-linejoin: miter"/>
   </g>
   <g id="patch_41">
    <path d="M 266.671623 145.92751 
L 272.766456 145.92751 
L 272.766456 145.92751 
L 266.671623 145.92751 
z
" clip-path="url(#p2374663952)" style="fill: #1f77b4; stroke: #000000; stroke-linejoin: miter"/>
   </g>
   <g id="patch_42">
    <path d="M 271.025075 145.92751 
L 277.119908 145.92751 
L 277.119908 145.92751 
L 271.025075 145.92751 
z
" clip-path="url(#p2374663952)" style="fill: #1f77b4; stroke: #000000; stroke-linejoin: miter"/>
   </g>
   <g id="patch_43">
    <path d="M 275.378527 145.92751 
L 281.47336 145.92751 
L 281.47336 145.92751 
L 275.378527 145.92751 
z
" clip-path="url(#p2374663952)" style="fill: #1f77b4; stroke: #000000; stroke-linejoin: miter"/>
   </g>
   <g id="patch_44">
    <path d="M 279.731979 145.92751 
L 285.826811 145.92751 
L 285.826811 145.92751 
L 279.731979 145.92751 
z
" clip-path="url(#p2374663952)" style="fill: #1f77b4; stroke: #000000; stroke-linejoin: miter"/>
   </g>
   <g id="patch_45">
    <path d="M 284.085431 145.92751 
L 290.180263 145.92751 
L 290.180263 145.92751 
L 284.085431 145.92751 
z
" clip-path="url(#p2374663952)" style="fill: #1f77b4; stroke: #000000; stroke-linejoin: miter"/>
   </g>
   <g id="patch_46">
    <path d="M 288.438882 145.92751 
L 294.533715 145.92751 
L 294.533715 145.92751 
L 288.438882 145.92751 
z
" clip-path="url(#p2374663952)" style="fill: #1f77b4; stroke: #000000; stroke-linejoin: miter"/>
   </g>
   <g id="patch_47">
    <path d="M 292.792334 145.92751 
L 298.887167 145.92751 
L 298.887167 145.92751 
L 292.792334 145.92751 
z
" clip-path="url(#p2374663952)" style="fill: #1f77b4; stroke: #000000; stroke-linejoin: miter"/>
   </g>
   <g id="patch_48">
    <path d="M 297.145786 145.92751 
L 303.240619 145.92751 
L 303.240619 145.92751 
L 297.145786 145.92751 
z
" clip-path="url(#p2374663952)" style="fill: #1f77b4; stroke: #000000; stroke-linejoin: miter"/>
   </g>
   <g id="patch_49">
    <path d="M 301.499238 145.92751 
L 307.59407 145.92751 
L 307.59407 145.92751 
L 301.499238 145.92751 
z
" clip-path="url(#p2374663952)" style="fill: #1f77b4; stroke: #000000; stroke-linejoin: miter"/>
   </g>
   <g id="patch_50">
    <path d="M 305.85269 145.92751 
L 311.947522 145.92751 
L 311.947522 145.92751 
L 305.85269 145.92751 
z
" clip-path="url(#p2374663952)" style="fill: #1f77b4; stroke: #000000; stroke-linejoin: miter"/>
   </g>
   <g id="patch_51">
    <path d="M 310.206141 145.92751 
L 316.300974 145.92751 
L 316.300974 145.92751 
L 310.206141 145.92751 
z
" clip-path="url(#p2374663952)" style="fill: #1f77b4; stroke: #000000; stroke-linejoin: miter"/>
   </g>
   <g id="patch_52">
    <path d="M 314.559593 145.92751 
L 320.654426 145.92751 
L 320.654426 145.92751 
L 314.559593 145.92751 
z
" clip-path="url(#p2374663952)" style="fill: #1f77b4; stroke: #000000; stroke-linejoin: miter"/>
   </g>
   <g id="patch_53">
    <path d="M 318.913045 145.92751 
L 325.007878 145.92751 
L 325.007878 145.92751 
L 318.913045 145.92751 
z
" clip-path="url(#p2374663952)" style="fill: #1f77b4; stroke: #000000; stroke-linejoin: miter"/>
   </g>
   <g id="patch_54">
    <path d="M 323.266497 145.92751 
L 329.361329 145.92751 
L 329.361329 145.92751 
L 323.266497 145.92751 
z
" clip-path="url(#p2374663952)" style="fill: #1f77b4; stroke: #000000; stroke-linejoin: miter"/>
   </g>
   <g id="patch_55">
    <path d="M 327.619949 145.92751 
L 333.714781 145.92751 
L 333.714781 145.92751 
L 327.619949 145.92751 
z
" clip-path="url(#p2374663952)" style="fill: #1f77b4; stroke: #000000; stroke-linejoin: miter"/>
   </g>
   <g id="patch_56">
    <path d="M 331.973401 145.92751 
L 338.068233 145.92751 
L 338.068233 145.92751 
L 331.973401 145.92751 
z
" clip-path="url(#p2374663952)" style="fill: #1f77b4; stroke: #000000; stroke-linejoin: miter"/>
   </g>
   <g id="patch_57">
    <path d="M 336.326852 145.92751 
L 342.421685 145.92751 
L 342.421685 145.92751 
L 336.326852 145.92751 
z
" clip-path="url(#p2374663952)" style="fill: #1f77b4; stroke: #000000; stroke-linejoin: miter"/>
   </g>
   <g id="patch_58">
    <path d="M 340.680304 145.92751 
L 346.775137 145.92751 
L 346.775137 145.92751 
L 340.680304 145.92751 
z
" clip-path="url(#p2374663952)" style="fill: #1f77b4; stroke: #000000; stroke-linejoin: miter"/>
   </g>
   <g id="patch_59">
    <path d="M 345.033756 145.92751 
L 351.128589 145.92751 
L 351.128589 145.92751 
L 345.033756 145.92751 
z
" clip-path="url(#p2374663952)" style="fill: #1f77b4; stroke: #000000; stroke-linejoin: miter"/>
   </g>
   <g id="patch_60">
    <path d="M 349.387208 145.92751 
L 355.48204 145.92751 
L 355.48204 145.92751 
L 349.387208 145.92751 
z
" clip-path="url(#p2374663952)" style="fill: #1f77b4; stroke: #000000; stroke-linejoin: miter"/>
   </g>
   <g id="patch_61">
    <path d="M 353.74066 145.92751 
L 359.835492 145.92751 
L 359.835492 145.92751 
L 353.74066 145.92751 
z
" clip-path="url(#p2374663952)" style="fill: #1f77b4; stroke: #000000; stroke-linejoin: miter"/>
   </g>
   <g id="patch_62">
    <path d="M 358.094111 145.92751 
L 364.188944 145.92751 
L 364.188944 145.92751 
L 358.094111 145.92751 
z
" clip-path="url(#p2374663952)" style="fill: #1f77b4; stroke: #000000; stroke-linejoin: miter"/>
   </g>
   <g id="patch_63">
    <path d="M 362.447563 145.92751 
L 368.542396 145.92751 
L 368.542396 145.92751 
L 362.447563 145.92751 
z
" clip-path="url(#p2374663952)" style="fill: #1f77b4; stroke: #000000; stroke-linejoin: miter"/>
   </g>
   <g id="patch_64">
    <path d="M 366.801015 145.92751 
L 372.895848 145.92751 
L 372.895848 145.92751 
L 366.801015 145.92751 
z
" clip-path="url(#p2374663952)" style="fill: #1f77b4; stroke: #000000; stroke-linejoin: miter"/>
   </g>
   <g id="patch_65">
    <path d="M 371.154467 145.92751 
L 377.249299 145.92751 
L 377.249299 145.92751 
L 371.154467 145.92751 
z
" clip-path="url(#p2374663952)" style="fill: #1f77b4; stroke: #000000; stroke-linejoin: miter"/>
   </g>
   <g id="patch_66">
    <path d="M 375.507919 145.92751 
L 381.602751 145.92751 
L 381.602751 145.92751 
L 375.507919 145.92751 
z
" clip-path="url(#p2374663952)" style="fill: #1f77b4; stroke: #000000; stroke-linejoin: miter"/>
   </g>
   <g id="patch_67">
    <path d="M 379.86137 145.92751 
L 385.956203 145.92751 
L 385.956203 145.92751 
L 379.86137 145.92751 
z
" clip-path="url(#p2374663952)" style="fill: #1f77b4; stroke: #000000; stroke-linejoin: miter"/>
   </g>
   <g id="patch_68">
    <path d="M 384.214822 145.92751 
L 390.309655 145.92751 
L 390.309655 145.92751 
L 384.214822 145.92751 
z
" clip-path="url(#p2374663952)" style="fill: #1f77b4; stroke: #000000; stroke-linejoin: miter"/>
   </g>
   <g id="patch_69">
    <path d="M 388.568274 145.92751 
L 394.663107 145.92751 
L 394.663107 145.92751 
L 388.568274 145.92751 
z
" clip-path="url(#p2374663952)" style="fill: #1f77b4; stroke: #000000; stroke-linejoin: miter"/>
   </g>
   <g id="patch_70">
    <path d="M 392.921726 145.92751 
L 399.016558 145.92751 
L 399.016558 145.92751 
L 392.921726 145.92751 
z
" clip-path="url(#p2374663952)" style="fill: #1f77b4; stroke: #000000; stroke-linejoin: miter"/>
   </g>
   <g id="patch_71">
    <path d="M 397.275178 145.92751 
L 403.37001 145.92751 
L 403.37001 145.92751 
L 397.275178 145.92751 
z
" clip-path="url(#p2374663952)" style="fill: #1f77b4; stroke: #000000; stroke-linejoin: miter"/>
   </g>
   <g id="patch_72">
    <path d="M 401.62863 145.92751 
L 407.723462 145.92751 
L 407.723462 145.92751 
L 401.62863 145.92751 
z
" clip-path="url(#p2374663952)" style="fill: #1f77b4; stroke: #000000; stroke-linejoin: miter"/>
   </g>
   <g id="patch_73">
    <path d="M 405.982081 145.92751 
L 412.076914 145.92751 
L 412.076914 145.92751 
L 405.982081 145.92751 
z
" clip-path="url(#p2374663952)" style="fill: #1f77b4; stroke: #000000; stroke-linejoin: miter"/>
   </g>
   <g id="patch_74">
    <path d="M 410.335533 145.92751 
L 416.430366 145.92751 
L 416.430366 145.92751 
L 410.335533 145.92751 
z
" clip-path="url(#p2374663952)" style="fill: #1f77b4; stroke: #000000; stroke-linejoin: miter"/>
   </g>
   <g id="patch_75">
    <path d="M 414.688985 145.92751 
L 420.783817 145.92751 
L 420.783817 145.92751 
L 414.688985 145.92751 
z
" clip-path="url(#p2374663952)" style="fill: #1f77b4; stroke: #000000; stroke-linejoin: miter"/>
   </g>
   <g id="patch_76">
    <path d="M 419.042437 145.92751 
L 425.137269 145.92751 
L 425.137269 145.92751 
L 419.042437 145.92751 
z
" clip-path="url(#p2374663952)" style="fill: #1f77b4; stroke: #000000; stroke-linejoin: miter"/>
   </g>
   <g id="patch_77">
    <path d="M 423.395889 145.92751 
L 429.490721 145.92751 
L 429.490721 145.92751 
L 423.395889 145.92751 
z
" clip-path="url(#p2374663952)" style="fill: #1f77b4; stroke: #000000; stroke-linejoin: miter"/>
   </g>
   <g id="patch_78">
    <path d="M 427.74934 145.92751 
L 433.844173 145.92751 
L 433.844173 145.92751 
L 427.74934 145.92751 
z
" clip-path="url(#p2374663952)" style="fill: #1f77b4; stroke: #000000; stroke-linejoin: miter"/>
   </g>
   <g id="patch_79">
    <path d="M 432.102792 145.92751 
L 438.197625 145.92751 
L 438.197625 145.92751 
L 432.102792 145.92751 
z
" clip-path="url(#p2374663952)" style="fill: #1f77b4; stroke: #000000; stroke-linejoin: miter"/>
   </g>
   <g id="patch_80">
    <path d="M 436.456244 145.92751 
L 442.551077 145.92751 
L 442.551077 145.92751 
L 436.456244 145.92751 
z
" clip-path="url(#p2374663952)" style="fill: #1f77b4; stroke: #000000; stroke-linejoin: miter"/>
   </g>
   <g id="patch_81">
    <path d="M 440.809696 145.92751 
L 446.904528 145.92751 
L 446.904528 145.92751 
L 440.809696 145.92751 
z
" clip-path="url(#p2374663952)" style="fill: #1f77b4; stroke: #000000; stroke-linejoin: miter"/>
   </g>
   <g id="patch_82">
    <path d="M 445.163148 145.92751 
L 451.25798 145.92751 
L 451.25798 145.92751 
L 445.163148 145.92751 
z
" clip-path="url(#p2374663952)" style="fill: #1f77b4; stroke: #000000; stroke-linejoin: miter"/>
   </g>
   <g id="patch_83">
    <path d="M 449.516599 145.92751 
L 455.611432 145.92751 
L 455.611432 145.92751 
L 449.516599 145.92751 
z
" clip-path="url(#p2374663952)" style="fill: #1f77b4; stroke: #000000; stroke-linejoin: miter"/>
   </g>
   <g id="patch_84">
    <path d="M 453.870051 145.92751 
L 459.964884 145.92751 
L 459.964884 145.92751 
L 453.870051 145.92751 
z
" clip-path="url(#p2374663952)" style="fill: #1f77b4; stroke: #000000; stroke-linejoin: miter"/>
   </g>
   <g id="patch_85">
    <path d="M 458.223503 145.92751 
L 464.318336 145.92751 
L 464.318336 145.92751 
L 458.223503 145.92751 
z
" clip-path="url(#p2374663952)" style="fill: #1f77b4; stroke: #000000; stroke-linejoin: miter"/>
   </g>
   <g id="patch_86">
    <path d="M 462.576955 145.92751 
L 468.671787 145.92751 
L 468.671787 145.92751 
L 462.576955 145.92751 
z
" clip-path="url(#p2374663952)" style="fill: #1f77b4; stroke: #000000; stroke-linejoin: miter"/>
   </g>
   <g id="patch_87">
    <path d="M 466.930407 145.92751 
L 473.025239 145.92751 
L 473.025239 145.92751 
L 466.930407 145.92751 
z
" clip-path="url(#p2374663952)" style="fill: #1f77b4; stroke: #000000; stroke-linejoin: miter"/>
   </g>
   <g id="patch_88">
    <path d="M 471.283859 145.92751 
L 477.378691 145.92751 
L 477.378691 145.92751 
L 471.283859 145.92751 
z
" clip-path="url(#p2374663952)" style="fill: #1f77b4; stroke: #000000; stroke-linejoin: miter"/>
   </g>
   <g id="patch_89">
    <path d="M 475.63731 145.92751 
L 481.732143 145.92751 
L 481.732143 145.92751 
L 475.63731 145.92751 
z
" clip-path="url(#p2374663952)" style="fill: #1f77b4; stroke: #000000; stroke-linejoin: miter"/>
   </g>
   <g id="patch_90">
    <path d="M 479.990762 145.92751 
L 486.085595 145.92751 
L 486.085595 145.92751 
L 479.990762 145.92751 
z
" clip-path="url(#p2374663952)" style="fill: #1f77b4; stroke: #000000; stroke-linejoin: miter"/>
   </g>
   <g id="patch_91">
    <path d="M 484.344214 145.92751 
L 490.439046 145.92751 
L 490.439046 145.92751 
L 484.344214 145.92751 
z
" clip-path="url(#p2374663952)" style="fill: #1f77b4; stroke: #000000; stroke-linejoin: miter"/>
   </g>
   <g id="patch_92">
    <path d="M 488.697666 145.92751 
L 494.792498 145.92751 
L 494.792498 145.92751 
L 488.697666 145.92751 
z
" clip-path="url(#p2374663952)" style="fill: #1f77b4; stroke: #000000; stroke-linejoin: miter"/>
   </g>
   <g id="patch_93">
    <path d="M 493.051118 145.92751 
L 499.14595 145.92751 
L 499.14595 145.92751 
L 493.051118 145.92751 
z
" clip-path="url(#p2374663952)" style="fill: #1f77b4; stroke: #000000; stroke-linejoin: miter"/>
   </g>
   <g id="patch_94">
    <path d="M 497.404569 145.92751 
L 503.499402 145.92751 
L 503.499402 145.92751 
L 497.404569 145.92751 
z
" clip-path="url(#p2374663952)" style="fill: #1f77b4; stroke: #000000; stroke-linejoin: miter"/>
   </g>
   <g id="patch_95">
    <path d="M 501.758021 145.92751 
L 507.852854 145.92751 
L 507.852854 145.92751 
L 501.758021 145.92751 
z
" clip-path="url(#p2374663952)" style="fill: #1f77b4; stroke: #000000; stroke-linejoin: miter"/>
   </g>
   <g id="patch_96">
    <path d="M 506.111473 145.92751 
L 512.206306 145.92751 
L 512.206306 145.92751 
L 506.111473 145.92751 
z
" clip-path="url(#p2374663952)" style="fill: #1f77b4; stroke: #000000; stroke-linejoin: miter"/>
   </g>
   <g id="patch_97">
    <path d="M 510.464925 145.92751 
L 516.559757 145.92751 
L 516.559757 145.92751 
L 510.464925 145.92751 
z
" clip-path="url(#p2374663952)" style="fill: #1f77b4; stroke: #000000; stroke-linejoin: miter"/>
   </g>
   <g id="patch_98">
    <path d="M 514.818377 145.92751 
L 520.913209 145.92751 
L 520.913209 145.92751 
L 514.818377 145.92751 
z
" clip-path="url(#p2374663952)" style="fill: #1f77b4; stroke: #000000; stroke-linejoin: miter"/>
   </g>
   <g id="patch_99">
    <path d="M 519.171828 145.92751 
L 525.266661 145.92751 
L 525.266661 145.92751 
L 519.171828 145.92751 
z
" clip-path="url(#p2374663952)" style="fill: #1f77b4; stroke: #000000; stroke-linejoin: miter"/>
   </g>
   <g id="patch_100">
    <path d="M 523.52528 145.92751 
L 529.620113 145.92751 
L 529.620113 145.92751 
L 523.52528 145.92751 
z
" clip-path="url(#p2374663952)" style="fill: #1f77b4; stroke: #000000; stroke-linejoin: miter"/>
   </g>
   <g id="patch_101">
    <path d="M 527.878732 145.92751 
L 533.973565 145.92751 
L 533.973565 145.92751 
L 527.878732 145.92751 
z
" clip-path="url(#p2374663952)" style="fill: #1f77b4; stroke: #000000; stroke-linejoin: miter"/>
   </g>
   <g id="patch_102">
    <path d="M 532.232184 145.92751 
L 538.327016 145.92751 
L 538.327016 145.92751 
L 532.232184 145.92751 
z
" clip-path="url(#p2374663952)" style="fill: #1f77b4; stroke: #000000; stroke-linejoin: miter"/>
   </g>
   <g id="patch_103">
    <path d="M 536.585636 145.92751 
L 542.680468 145.92751 
L 542.680468 145.92751 
L 536.585636 145.92751 
z
" clip-path="url(#p2374663952)" style="fill: #1f77b4; stroke: #000000; stroke-linejoin: miter"/>
   </g>
   <g id="patch_104">
    <path d="M 540.939087 145.92751 
L 547.03392 145.92751 
L 547.03392 145.92751 
L 540.939087 145.92751 
z
" clip-path="url(#p2374663952)" style="fill: #1f77b4; stroke: #000000; stroke-linejoin: miter"/>
   </g>
   <g id="patch_105">
    <path d="M 545.292539 145.92751 
L 551.387372 145.92751 
L 551.387372 145.92751 
L 545.292539 145.92751 
z
" clip-path="url(#p2374663952)" style="fill: #1f77b4; stroke: #000000; stroke-linejoin: miter"/>
   </g>
   <g id="patch_106">
    <path d="M 549.645991 145.92751 
L 555.740824 145.92751 
L 555.740824 145.92751 
L 549.645991 145.92751 
z
" clip-path="url(#p2374663952)" style="fill: #1f77b4; stroke: #000000; stroke-linejoin: miter"/>
   </g>
   <g id="patch_107">
    <path d="M 553.999443 145.92751 
L 560.094275 145.92751 
L 560.094275 145.92751 
L 553.999443 145.92751 
z
" clip-path="url(#p2374663952)" style="fill: #1f77b4; stroke: #000000; stroke-linejoin: miter"/>
   </g>
   <g id="patch_108">
    <path d="M 558.352895 145.92751 
L 564.447727 145.92751 
L 564.447727 145.92751 
L 558.352895 145.92751 
z
" clip-path="url(#p2374663952)" style="fill: #1f77b4; stroke: #000000; stroke-linejoin: miter"/>
   </g>
   <g id="patch_109">
    <path d="M 562.706347 145.92751 
L 568.801179 145.92751 
L 568.801179 145.92751 
L 562.706347 145.92751 
z
" clip-path="url(#p2374663952)" style="fill: #1f77b4; stroke: #000000; stroke-linejoin: miter"/>
   </g>
   <g id="patch_110">
    <path d="M 567.059798 145.92751 
L 573.154631 145.92751 
L 573.154631 145.92751 
L 567.059798 145.92751 
z
" clip-path="url(#p2374663952)" style="fill: #1f77b4; stroke: #000000; stroke-linejoin: miter"/>
   </g>
   <g id="patch_111">
    <path d="M 571.41325 145.92751 
L 577.508083 145.92751 
L 577.508083 145.92751 
L 571.41325 145.92751 
z
" clip-path="url(#p2374663952)" style="fill: #1f77b4; stroke: #000000; stroke-linejoin: miter"/>
   </g>
   <g id="patch_112">
    <path d="M 575.766702 145.92751 
L 581.861535 145.92751 
L 581.861535 145.92751 
L 575.766702 145.92751 
z
" clip-path="url(#p2374663952)" style="fill: #1f77b4; stroke: #000000; stroke-linejoin: miter"/>
   </g>
   <g id="patch_113">
    <path d="M 580.120154 145.92751 
L 586.214986 145.92751 
L 586.214986 145.92751 
L 580.120154 145.92751 
z
" clip-path="url(#p2374663952)" style="fill: #1f77b4; stroke: #000000; stroke-linejoin: miter"/>
   </g>
   <g id="patch_114">
    <path d="M 584.473606 145.92751 
L 590.568438 145.92751 
L 590.568438 145.92751 
L 584.473606 145.92751 
z
" clip-path="url(#p2374663952)" style="fill: #1f77b4; stroke: #000000; stroke-linejoin: miter"/>
   </g>
   <g id="patch_115">
    <path d="M 588.827057 145.92751 
L 594.92189 145.92751 
L 594.92189 145.92751 
L 588.827057 145.92751 
z
" clip-path="url(#p2374663952)" style="fill: #1f77b4; stroke: #000000; stroke-linejoin: miter"/>
   </g>
   <g id="patch_116">
    <path d="M 593.180509 145.92751 
L 599.275342 145.92751 
L 599.275342 145.92751 
L 593.180509 145.92751 
z
" clip-path="url(#p2374663952)" style="fill: #1f77b4; stroke: #000000; stroke-linejoin: miter"/>
   </g>
   <g id="patch_117">
    <path d="M 597.533961 145.92751 
L 603.628794 145.92751 
L 603.628794 145.92751 
L 597.533961 145.92751 
z
" clip-path="url(#p2374663952)" style="fill: #1f77b4; stroke: #000000; stroke-linejoin: miter"/>
   </g>
   <g id="patch_118">
    <path d="M 601.887413 145.92751 
L 607.982245 145.92751 
L 607.982245 145.92751 
L 601.887413 145.92751 
z
" clip-path="url(#p2374663952)" style="fill: #1f77b4; stroke: #000000; stroke-linejoin: miter"/>
   </g>
   <g id="patch_119">
    <path d="M 606.240865 145.92751 
L 612.335697 145.92751 
L 612.335697 145.92751 
L 606.240865 145.92751 
z
" clip-path="url(#p2374663952)" style="fill: #1f77b4; stroke: #000000; stroke-linejoin: miter"/>
   </g>
   <g id="patch_120">
    <path d="M 610.594316 145.92751 
L 616.689149 145.92751 
L 616.689149 145.92751 
L 610.594316 145.92751 
z
" clip-path="url(#p2374663952)" style="fill: #1f77b4; stroke: #000000; stroke-linejoin: miter"/>
   </g>
   <g id="patch_121">
    <path d="M 614.947768 145.92751 
L 621.042601 145.92751 
L 621.042601 145.92751 
L 614.947768 145.92751 
z
" clip-path="url(#p2374663952)" style="fill: #1f77b4; stroke: #000000; stroke-linejoin: miter"/>
   </g>
   <g id="patch_122">
    <path d="M 619.30122 145.92751 
L 625.396053 145.92751 
L 625.396053 145.92751 
L 619.30122 145.92751 
z
" clip-path="url(#p2374663952)" style="fill: #1f77b4; stroke: #000000; stroke-linejoin: miter"/>
   </g>
   <g id="patch_123">
    <path d="M 623.654672 145.92751 
L 629.749504 145.92751 
L 629.749504 145.92751 
L 623.654672 145.92751 
z
" clip-path="url(#p2374663952)" style="fill: #1f77b4; stroke: #000000; stroke-linejoin: miter"/>
   </g>
   <g id="patch_124">
    <path d="M 628.008124 145.92751 
L 634.102956 145.92751 
L 634.102956 145.92751 
L 628.008124 145.92751 
z
" clip-path="url(#p2374663952)" style="fill: #1f77b4; stroke: #000000; stroke-linejoin: miter"/>
   </g>
   <g id="patch_125">
    <path d="M 632.361576 145.92751 
L 638.456408 145.92751 
L 638.456408 145.92751 
L 632.361576 145.92751 
z
" clip-path="url(#p2374663952)" style="fill: #1f77b4; stroke: #000000; stroke-linejoin: miter"/>
   </g>
   <g id="patch_126">
    <path d="M 636.715027 145.92751 
L 642.80986 145.92751 
L 642.80986 145.92751 
L 636.715027 145.92751 
z
" clip-path="url(#p2374663952)" style="fill: #1f77b4; stroke: #000000; stroke-linejoin: miter"/>
   </g>
   <g id="patch_127">
    <path d="M 641.068479 145.92751 
L 647.163312 145.92751 
L 647.163312 145.92751 
L 641.068479 145.92751 
z
" clip-path="url(#p2374663952)" style="fill: #1f77b4; stroke: #000000; stroke-linejoin: miter"/>
   </g>
   <g id="patch_128">
    <path d="M 645.421931 145.92751 
L 651.516763 145.92751 
L 651.516763 145.92751 
L 645.421931 145.92751 
z
" clip-path="url(#p2374663952)" style="fill: #1f77b4; stroke: #000000; stroke-linejoin: miter"/>
   </g>
   <g id="patch_129">
    <path d="M 649.775383 145.92751 
L 655.870215 145.92751 
L 655.870215 145.92751 
L 649.775383 145.92751 
z
" clip-path="url(#p2374663952)" style="fill: #1f77b4; stroke: #000000; stroke-linejoin: miter"/>
   </g>
   <g id="patch_130">
    <path d="M 654.128835 145.92751 
L 660.223667 145.92751 
L 660.223667 145.92751 
L 654.128835 145.92751 
z
" clip-path="url(#p2374663952)" style="fill: #1f77b4; stroke: #000000; stroke-linejoin: miter"/>
   </g>
   <g id="patch_131">
    <path d="M 658.482286 145.92751 
L 664.577119 145.92751 
L 664.577119 145.92751 
L 658.482286 145.92751 
z
" clip-path="url(#p2374663952)" style="fill: #1f77b4; stroke: #000000; stroke-linejoin: miter"/>
   </g>
   <g id="patch_132">
    <path d="M 662.835738 145.92751 
L 668.930571 145.92751 
L 668.930571 145.92751 
L 662.835738 145.92751 
z
" clip-path="url(#p2374663952)" style="fill: #1f77b4; stroke: #000000; stroke-linejoin: miter"/>
   </g>
   <g id="patch_133">
    <path d="M 667.18919 145.92751 
L 673.284023 145.92751 
L 673.284023 145.92751 
L 667.18919 145.92751 
z
" clip-path="url(#p2374663952)" style="fill: #1f77b4; stroke: #000000; stroke-linejoin: miter"/>
   </g>
   <g id="patch_134">
    <path d="M 671.542642 145.92751 
L 677.637474 145.92751 
L 677.637474 145.92751 
L 671.542642 145.92751 
z
" clip-path="url(#p2374663952)" style="fill: #1f77b4; stroke: #000000; stroke-linejoin: miter"/>
   </g>
   <g id="patch_135">
    <path d="M 674.154713 145.92751 
L 680.249545 145.92751 
L 680.249545 145.92751 
L 674.154713 145.92751 
z
" clip-path="url(#p2374663952)" style="fill: #1f77b4; stroke: #000000; stroke-linejoin: miter"/>
   </g>
   <g id="matplotlib.axis_1">
    <g id="xtick_1">
     <g id="line2d_1">
      <path d="M 128.667201 145.92751 
L 128.667201 10.8 
" clip-path="url(#p2374663952)" style="fill: none; stroke: #b0b0b0; stroke-width: 0.8; stroke-linecap: square"/>
     </g>
     <g id="line2d_2">
      <defs>
       <path id="m868b3929bb" d="M 0 0 
L 0 3.5 
" style="stroke: #000000; stroke-width: 0.8"/>
      </defs>
      <g>
       <use xlink:href="#m868b3929bb" x="128.667201" y="145.92751" style="stroke: #000000; stroke-width: 0.8"/>
      </g>
     </g>
     <g id="text_1">
      <!-- −300 -->
      <g transform="translate(103.595846 182.681679) rotate(-45) scale(0.12 -0.12)">
       <defs>
        <path id="DejaVuSans-2212" d="M 678 2272 
L 4684 2272 
L 4684 1741 
L 678 1741 
L 678 2272 
z
" transform="scale(0.015625)"/>
        <path id="DejaVuSans-33" d="M 2597 2516 
Q 3050 2419 3304 2112 
Q 3559 1806 3559 1356 
Q 3559 666 3084 287 
Q 2609 -91 1734 -91 
Q 1441 -91 1130 -33 
Q 819 25 488 141 
L 488 750 
Q 750 597 1062 519 
Q 1375 441 1716 441 
Q 2309 441 2620 675 
Q 2931 909 2931 1356 
Q 2931 1769 2642 2001 
Q 2353 2234 1838 2234 
L 1294 2234 
L 1294 2753 
L 1863 2753 
Q 2328 2753 2575 2939 
Q 2822 3125 2822 3475 
Q 2822 3834 2567 4026 
Q 2313 4219 1838 4219 
Q 1578 4219 1281 4162 
Q 984 4106 628 3988 
L 628 4550 
Q 988 4650 1302 4700 
Q 1616 4750 1894 4750 
Q 2613 4750 3031 4423 
Q 3450 4097 3450 3541 
Q 3450 3153 3228 2886 
Q 3006 2619 2597 2516 
z
" transform="scale(0.015625)"/>
        <path id="DejaVuSans-30" d="M 2034 4250 
Q 1547 4250 1301 3770 
Q 1056 3291 1056 2328 
Q 1056 1369 1301 889 
Q 1547 409 2034 409 
Q 2525 409 2770 889 
Q 3016 1369 3016 2328 
Q 3016 3291 2770 3770 
Q 2525 4250 2034 4250 
z
M 2034 4750 
Q 2819 4750 3233 4129 
Q 3647 3509 3647 2328 
Q 3647 1150 3233 529 
Q 2819 -91 2034 -91 
Q 1250 -91 836 529 
Q 422 1150 422 2328 
Q 422 3509 836 4129 
Q 1250 4750 2034 4750 
z
" transform="scale(0.015625)"/>
       </defs>
       <use xlink:href="#DejaVuSans-2212"/>
       <use xlink:href="#DejaVuSans-33" x="83.789062"/>
       <use xlink:href="#DejaVuSans-30" x="147.412109"/>
       <use xlink:href="#DejaVuSans-30" x="211.035156"/>
      </g>
     </g>
    </g>
    <g id="xtick_2">
     <g id="line2d_3">
      <path d="M 215.736237 145.92751 
L 215.736237 10.8 
" clip-path="url(#p2374663952)" style="fill: none; stroke: #b0b0b0; stroke-width: 0.8; stroke-linecap: square"/>
     </g>
     <g id="line2d_4">
      <g>
       <use xlink:href="#m868b3929bb" x="215.736237" y="145.92751" style="stroke: #000000; stroke-width: 0.8"/>
      </g>
     </g>
     <g id="text_2">
      <!-- −200 -->
      <g transform="translate(190.664882 182.681679) rotate(-45) scale(0.12 -0.12)">
       <defs>
        <path id="DejaVuSans-32" d="M 1228 531 
L 3431 531 
L 3431 0 
L 469 0 
L 469 531 
Q 828 903 1448 1529 
Q 2069 2156 2228 2338 
Q 2531 2678 2651 2914 
Q 2772 3150 2772 3378 
Q 2772 3750 2511 3984 
Q 2250 4219 1831 4219 
Q 1534 4219 1204 4116 
Q 875 4013 500 3803 
L 500 4441 
Q 881 4594 1212 4672 
Q 1544 4750 1819 4750 
Q 2544 4750 2975 4387 
Q 3406 4025 3406 3419 
Q 3406 3131 3298 2873 
Q 3191 2616 2906 2266 
Q 2828 2175 2409 1742 
Q 1991 1309 1228 531 
z
" transform="scale(0.015625)"/>
       </defs>
       <use xlink:href="#DejaVuSans-2212"/>
       <use xlink:href="#DejaVuSans-32" x="83.789062"/>
       <use xlink:href="#DejaVuSans-30" x="147.412109"/>
       <use xlink:href="#DejaVuSans-30" x="211.035156"/>
      </g>
     </g>
    </g>
    <g id="xtick_3">
     <g id="line2d_5">
      <path d="M 302.805273 145.92751 
L 302.805273 10.8 
" clip-path="url(#p2374663952)" style="fill: none; stroke: #b0b0b0; stroke-width: 0.8; stroke-linecap: square"/>
     </g>
     <g id="line2d_6">
      <g>
       <use xlink:href="#m868b3929bb" x="302.805273" y="145.92751" style="stroke: #000000; stroke-width: 0.8"/>
      </g>
     </g>
     <g id="text_3">
      <!-- −100 -->
      <g transform="translate(277.733919 182.681679) rotate(-45) scale(0.12 -0.12)">
       <defs>
        <path id="DejaVuSans-31" d="M 794 531 
L 1825 531 
L 1825 4091 
L 703 3866 
L 703 4441 
L 1819 4666 
L 2450 4666 
L 2450 531 
L 3481 531 
L 3481 0 
L 794 0 
L 794 531 
z
" transform="scale(0.015625)"/>
       </defs>
       <use xlink:href="#DejaVuSans-2212"/>
       <use xlink:href="#DejaVuSans-31" x="83.789062"/>
       <use xlink:href="#DejaVuSans-30" x="147.412109"/>
       <use xlink:href="#DejaVuSans-30" x="211.035156"/>
      </g>
     </g>
    </g>
    <g id="xtick_4">
     <g id="line2d_7">
      <path d="M 389.87431 145.92751 
L 389.87431 10.8 
" clip-path="url(#p2374663952)" style="fill: none; stroke: #b0b0b0; stroke-width: 0.8; stroke-linecap: square"/>
     </g>
     <g id="line2d_8">
      <g>
       <use xlink:href="#m868b3929bb" x="389.87431" y="145.92751" style="stroke: #000000; stroke-width: 0.8"/>
      </g>
     </g>
     <g id="text_4">
      <!-- 0 -->
      <g transform="translate(382.710876 164.773758) rotate(-45) scale(0.12 -0.12)">
       <use xlink:href="#DejaVuSans-30"/>
      </g>
     </g>
    </g>
    <g id="xtick_5">
     <g id="line2d_9">
      <path d="M 476.943346 145.92751 
L 476.943346 10.8 
" clip-path="url(#p2374663952)" style="fill: none; stroke: #b0b0b0; stroke-width: 0.8; stroke-linecap: square"/>
     </g>
     <g id="line2d_10">
      <g>
       <use xlink:href="#m868b3929bb" x="476.943346" y="145.92751" style="stroke: #000000; stroke-width: 0.8"/>
      </g>
     </g>
     <g id="text_5">
      <!-- 100 -->
      <g transform="translate(458.982392 175.571279) rotate(-45) scale(0.12 -0.12)">
       <use xlink:href="#DejaVuSans-31"/>
       <use xlink:href="#DejaVuSans-30" x="63.623047"/>
       <use xlink:href="#DejaVuSans-30" x="127.246094"/>
      </g>
     </g>
    </g>
    <g id="xtick_6">
     <g id="line2d_11">
      <path d="M 564.012382 145.92751 
L 564.012382 10.8 
" clip-path="url(#p2374663952)" style="fill: none; stroke: #b0b0b0; stroke-width: 0.8; stroke-linecap: square"/>
     </g>
     <g id="line2d_12">
      <g>
       <use xlink:href="#m868b3929bb" x="564.012382" y="145.92751" style="stroke: #000000; stroke-width: 0.8"/>
      </g>
     </g>
     <g id="text_6">
      <!-- 200 -->
      <g transform="translate(546.051428 175.571279) rotate(-45) scale(0.12 -0.12)">
       <use xlink:href="#DejaVuSans-32"/>
       <use xlink:href="#DejaVuSans-30" x="63.623047"/>
       <use xlink:href="#DejaVuSans-30" x="127.246094"/>
      </g>
     </g>
    </g>
    <g id="xtick_7">
     <g id="line2d_13">
      <path d="M 651.081418 145.92751 
L 651.081418 10.8 
" clip-path="url(#p2374663952)" style="fill: none; stroke: #b0b0b0; stroke-width: 0.8; stroke-linecap: square"/>
     </g>
     <g id="line2d_14">
      <g>
       <use xlink:href="#m868b3929bb" x="651.081418" y="145.92751" style="stroke: #000000; stroke-width: 0.8"/>
      </g>
     </g>
     <g id="text_7">
      <!-- 300 -->
      <g transform="translate(633.120464 175.571279) rotate(-45) scale(0.12 -0.12)">
       <use xlink:href="#DejaVuSans-33"/>
       <use xlink:href="#DejaVuSans-30" x="63.623047"/>
       <use xlink:href="#DejaVuSans-30" x="127.246094"/>
      </g>
     </g>
    </g>
    <g id="text_8">
     <!-- Exponent: $10^x$ -->
     <g transform="translate(340.835 199.226353) scale(0.14 -0.14)">
      <defs>
       <path id="DejaVuSans-45" d="M 628 4666 
L 3578 4666 
L 3578 4134 
L 1259 4134 
L 1259 2753 
L 3481 2753 
L 3481 2222 
L 1259 2222 
L 1259 531 
L 3634 531 
L 3634 0 
L 628 0 
L 628 4666 
z
" transform="scale(0.015625)"/>
       <path id="DejaVuSans-78" d="M 3513 3500 
L 2247 1797 
L 3578 0 
L 2900 0 
L 1881 1375 
L 863 0 
L 184 0 
L 1544 1831 
L 300 3500 
L 978 3500 
L 1906 2253 
L 2834 3500 
L 3513 3500 
z
" transform="scale(0.015625)"/>
       <path id="DejaVuSans-70" d="M 1159 525 
L 1159 -1331 
L 581 -1331 
L 581 3500 
L 1159 3500 
L 1159 2969 
Q 1341 3281 1617 3432 
Q 1894 3584 2278 3584 
Q 2916 3584 3314 3078 
Q 3713 2572 3713 1747 
Q 3713 922 3314 415 
Q 2916 -91 2278 -91 
Q 1894 -91 1617 61 
Q 1341 213 1159 525 
z
M 3116 1747 
Q 3116 2381 2855 2742 
Q 2594 3103 2138 3103 
Q 1681 3103 1420 2742 
Q 1159 2381 1159 1747 
Q 1159 1113 1420 752 
Q 1681 391 2138 391 
Q 2594 391 2855 752 
Q 3116 1113 3116 1747 
z
" transform="scale(0.015625)"/>
       <path id="DejaVuSans-6f" d="M 1959 3097 
Q 1497 3097 1228 2736 
Q 959 2375 959 1747 
Q 959 1119 1226 758 
Q 1494 397 1959 397 
Q 2419 397 2687 759 
Q 2956 1122 2956 1747 
Q 2956 2369 2687 2733 
Q 2419 3097 1959 3097 
z
M 1959 3584 
Q 2709 3584 3137 3096 
Q 3566 2609 3566 1747 
Q 3566 888 3137 398 
Q 2709 -91 1959 -91 
Q 1206 -91 779 398 
Q 353 888 353 1747 
Q 353 2609 779 3096 
Q 1206 3584 1959 3584 
z
" transform="scale(0.015625)"/>
       <path id="DejaVuSans-6e" d="M 3513 2113 
L 3513 0 
L 2938 0 
L 2938 2094 
Q 2938 2591 2744 2837 
Q 2550 3084 2163 3084 
Q 1697 3084 1428 2787 
Q 1159 2491 1159 1978 
L 1159 0 
L 581 0 
L 581 3500 
L 1159 3500 
L 1159 2956 
Q 1366 3272 1645 3428 
Q 1925 3584 2291 3584 
Q 2894 3584 3203 3211 
Q 3513 2838 3513 2113 
z
" transform="scale(0.015625)"/>
       <path id="DejaVuSans-65" d="M 3597 1894 
L 3597 1613 
L 953 1613 
Q 991 1019 1311 708 
Q 1631 397 2203 397 
Q 2534 397 2845 478 
Q 3156 559 3463 722 
L 3463 178 
Q 3153 47 2828 -22 
Q 2503 -91 2169 -91 
Q 1331 -91 842 396 
Q 353 884 353 1716 
Q 353 2575 817 3079 
Q 1281 3584 2069 3584 
Q 2775 3584 3186 3129 
Q 3597 2675 3597 1894 
z
M 3022 2063 
Q 3016 2534 2758 2815 
Q 2500 3097 2075 3097 
Q 1594 3097 1305 2825 
Q 1016 2553 972 2059 
L 3022 2063 
z
" transform="scale(0.015625)"/>
       <path id="DejaVuSans-74" d="M 1172 4494 
L 1172 3500 
L 2356 3500 
L 2356 3053 
L 1172 3053 
L 1172 1153 
Q 1172 725 1289 603 
Q 1406 481 1766 481 
L 2356 481 
L 2356 0 
L 1766 0 
Q 1100 0 847 248 
Q 594 497 594 1153 
L 594 3053 
L 172 3053 
L 172 3500 
L 594 3500 
L 594 4494 
L 1172 4494 
z
" transform="scale(0.015625)"/>
       <path id="DejaVuSans-3a" d="M 750 794 
L 1409 794 
L 1409 0 
L 750 0 
L 750 794 
z
M 750 3309 
L 1409 3309 
L 1409 2516 
L 750 2516 
L 750 3309 
z
" transform="scale(0.015625)"/>
       <path id="DejaVuSans-20" transform="scale(0.015625)"/>
       <path id="DejaVuSans-Oblique-78" d="M 3841 3500 
L 2234 1784 
L 3219 0 
L 2559 0 
L 1819 1388 
L 531 0 
L -166 0 
L 1556 1844 
L 641 3500 
L 1300 3500 
L 1972 2234 
L 3144 3500 
L 3841 3500 
z
" transform="scale(0.015625)"/>
      </defs>
      <use xlink:href="#DejaVuSans-45" transform="translate(0 0.4375)"/>
      <use xlink:href="#DejaVuSans-78" transform="translate(63.183594 0.4375)"/>
      <use xlink:href="#DejaVuSans-70" transform="translate(122.363281 0.4375)"/>
      <use xlink:href="#DejaVuSans-6f" transform="translate(185.839844 0.4375)"/>
      <use xlink:href="#DejaVuSans-6e" transform="translate(247.021484 0.4375)"/>
      <use xlink:href="#DejaVuSans-65" transform="translate(310.400391 0.4375)"/>
      <use xlink:href="#DejaVuSans-6e" transform="translate(371.923828 0.4375)"/>
      <use xlink:href="#DejaVuSans-74" transform="translate(435.302734 0.4375)"/>
      <use xlink:href="#DejaVuSans-3a" transform="translate(474.511719 0.4375)"/>
      <use xlink:href="#DejaVuSans-20" transform="translate(508.203125 0.4375)"/>
      <use xlink:href="#DejaVuSans-31" transform="translate(539.990234 0.4375)"/>
      <use xlink:href="#DejaVuSans-30" transform="translate(603.613281 0.4375)"/>
      <use xlink:href="#DejaVuSans-Oblique-78" transform="translate(668.193359 38.71875) scale(0.7)"/>
     </g>
    </g>
   </g>
   <g id="matplotlib.axis_2">
    <g id="ytick_1">
     <g id="line2d_15">
      <path d="M 72.29 145.92751 
L 709.2 145.92751 
" clip-path="url(#p2374663952)" style="fill: none; stroke: #b0b0b0; stroke-width: 0.8; stroke-linecap: square"/>
     </g>
     <g id="line2d_16">
      <defs>
       <path id="m4b6bdded49" d="M 0 0 
L -3.5 0 
" style="stroke: #000000; stroke-width: 0.8"/>
      </defs>
      <g>
       <use xlink:href="#m4b6bdded49" x="72.29" y="145.92751" style="stroke: #000000; stroke-width: 0.8"/>
      </g>
     </g>
     <g id="text_9">
      <!-- 0.0 -->
      <g transform="translate(46.20625 150.486572) scale(0.12 -0.12)">
       <defs>
        <path id="DejaVuSans-2e" d="M 684 794 
L 1344 794 
L 1344 0 
L 684 0 
L 684 794 
z
" transform="scale(0.015625)"/>
       </defs>
       <use xlink:href="#DejaVuSans-30"/>
       <use xlink:href="#DejaVuSans-2e" x="63.623047"/>
       <use xlink:href="#DejaVuSans-30" x="95.410156"/>
      </g>
     </g>
    </g>
    <g id="ytick_2">
     <g id="line2d_17">
      <path d="M 72.29 118.902008 
L 709.2 118.902008 
" clip-path="url(#p2374663952)" style="fill: none; stroke: #b0b0b0; stroke-width: 0.8; stroke-linecap: square"/>
     </g>
     <g id="line2d_18">
      <g>
       <use xlink:href="#m4b6bdded49" x="72.29" y="118.902008" style="stroke: #000000; stroke-width: 0.8"/>
      </g>
     </g>
     <g id="text_10">
      <!-- 20.0 -->
      <g transform="translate(38.57125 123.46107) scale(0.12 -0.12)">
       <use xlink:href="#DejaVuSans-32"/>
       <use xlink:href="#DejaVuSans-30" x="63.623047"/>
       <use xlink:href="#DejaVuSans-2e" x="127.246094"/>
       <use xlink:href="#DejaVuSans-30" x="159.033203"/>
      </g>
     </g>
    </g>
    <g id="ytick_3">
     <g id="line2d_19">
      <path d="M 72.29 91.876506 
L 709.2 91.876506 
" clip-path="url(#p2374663952)" style="fill: none; stroke: #b0b0b0; stroke-width: 0.8; stroke-linecap: square"/>
     </g>
     <g id="line2d_20">
      <g>
       <use xlink:href="#m4b6bdded49" x="72.29" y="91.876506" style="stroke: #000000; stroke-width: 0.8"/>
      </g>
     </g>
     <g id="text_11">
      <!-- 40.0 -->
      <g transform="translate(38.57125 96.435568) scale(0.12 -0.12)">
       <defs>
        <path id="DejaVuSans-34" d="M 2419 4116 
L 825 1625 
L 2419 1625 
L 2419 4116 
z
M 2253 4666 
L 3047 4666 
L 3047 1625 
L 3713 1625 
L 3713 1100 
L 3047 1100 
L 3047 0 
L 2419 0 
L 2419 1100 
L 313 1100 
L 313 1709 
L 2253 4666 
z
" transform="scale(0.015625)"/>
       </defs>
       <use xlink:href="#DejaVuSans-34"/>
       <use xlink:href="#DejaVuSans-30" x="63.623047"/>
       <use xlink:href="#DejaVuSans-2e" x="127.246094"/>
       <use xlink:href="#DejaVuSans-30" x="159.033203"/>
      </g>
     </g>
    </g>
    <g id="ytick_4">
     <g id="line2d_21">
      <path d="M 72.29 64.851004 
L 709.2 64.851004 
" clip-path="url(#p2374663952)" style="fill: none; stroke: #b0b0b0; stroke-width: 0.8; stroke-linecap: square"/>
     </g>
     <g id="line2d_22">
      <g>
       <use xlink:href="#m4b6bdded49" x="72.29" y="64.851004" style="stroke: #000000; stroke-width: 0.8"/>
      </g>
     </g>
     <g id="text_12">
      <!-- 60.0 -->
      <g transform="translate(38.57125 69.410066) scale(0.12 -0.12)">
       <defs>
        <path id="DejaVuSans-36" d="M 2113 2584 
Q 1688 2584 1439 2293 
Q 1191 2003 1191 1497 
Q 1191 994 1439 701 
Q 1688 409 2113 409 
Q 2538 409 2786 701 
Q 3034 994 3034 1497 
Q 3034 2003 2786 2293 
Q 2538 2584 2113 2584 
z
M 3366 4563 
L 3366 3988 
Q 3128 4100 2886 4159 
Q 2644 4219 2406 4219 
Q 1781 4219 1451 3797 
Q 1122 3375 1075 2522 
Q 1259 2794 1537 2939 
Q 1816 3084 2150 3084 
Q 2853 3084 3261 2657 
Q 3669 2231 3669 1497 
Q 3669 778 3244 343 
Q 2819 -91 2113 -91 
Q 1303 -91 875 529 
Q 447 1150 447 2328 
Q 447 3434 972 4092 
Q 1497 4750 2381 4750 
Q 2619 4750 2861 4703 
Q 3103 4656 3366 4563 
z
" transform="scale(0.015625)"/>
       </defs>
       <use xlink:href="#DejaVuSans-36"/>
       <use xlink:href="#DejaVuSans-30" x="63.623047"/>
       <use xlink:href="#DejaVuSans-2e" x="127.246094"/>
       <use xlink:href="#DejaVuSans-30" x="159.033203"/>
      </g>
     </g>
    </g>
    <g id="ytick_5">
     <g id="line2d_23">
      <path d="M 72.29 37.825502 
L 709.2 37.825502 
" clip-path="url(#p2374663952)" style="fill: none; stroke: #b0b0b0; stroke-width: 0.8; stroke-linecap: square"/>
     </g>
     <g id="line2d_24">
      <g>
       <use xlink:href="#m4b6bdded49" x="72.29" y="37.825502" style="stroke: #000000; stroke-width: 0.8"/>
      </g>
     </g>
     <g id="text_13">
      <!-- 80.0 -->
      <g transform="translate(38.57125 42.384564) scale(0.12 -0.12)">
       <defs>
        <path id="DejaVuSans-38" d="M 2034 2216 
Q 1584 2216 1326 1975 
Q 1069 1734 1069 1313 
Q 1069 891 1326 650 
Q 1584 409 2034 409 
Q 2484 409 2743 651 
Q 3003 894 3003 1313 
Q 3003 1734 2745 1975 
Q 2488 2216 2034 2216 
z
M 1403 2484 
Q 997 2584 770 2862 
Q 544 3141 544 3541 
Q 544 4100 942 4425 
Q 1341 4750 2034 4750 
Q 2731 4750 3128 4425 
Q 3525 4100 3525 3541 
Q 3525 3141 3298 2862 
Q 3072 2584 2669 2484 
Q 3125 2378 3379 2068 
Q 3634 1759 3634 1313 
Q 3634 634 3220 271 
Q 2806 -91 2034 -91 
Q 1263 -91 848 271 
Q 434 634 434 1313 
Q 434 1759 690 2068 
Q 947 2378 1403 2484 
z
M 1172 3481 
Q 1172 3119 1398 2916 
Q 1625 2713 2034 2713 
Q 2441 2713 2670 2916 
Q 2900 3119 2900 3481 
Q 2900 3844 2670 4047 
Q 2441 4250 2034 4250 
Q 1625 4250 1398 4047 
Q 1172 3844 1172 3481 
z
" transform="scale(0.015625)"/>
       </defs>
       <use xlink:href="#DejaVuSans-38"/>
       <use xlink:href="#DejaVuSans-30" x="63.623047"/>
       <use xlink:href="#DejaVuSans-2e" x="127.246094"/>
       <use xlink:href="#DejaVuSans-30" x="159.033203"/>
      </g>
     </g>
    </g>
    <g id="ytick_6">
     <g id="line2d_25">
      <path d="M 72.29 10.8 
L 709.2 10.8 
" clip-path="url(#p2374663952)" style="fill: none; stroke: #b0b0b0; stroke-width: 0.8; stroke-linecap: square"/>
     </g>
     <g id="line2d_26">
      <g>
       <use xlink:href="#m4b6bdded49" x="72.29" y="10.8" style="stroke: #000000; stroke-width: 0.8"/>
      </g>
     </g>
     <g id="text_14">
      <!-- 100.0 -->
      <g transform="translate(30.93625 15.359063) scale(0.12 -0.12)">
       <use xlink:href="#DejaVuSans-31"/>
       <use xlink:href="#DejaVuSans-30" x="63.623047"/>
       <use xlink:href="#DejaVuSans-30" x="127.246094"/>
       <use xlink:href="#DejaVuSans-2e" x="190.869141"/>
       <use xlink:href="#DejaVuSans-30" x="222.65625"/>
      </g>
     </g>
    </g>
    <g id="text_15">
     <!-- % -->
     <g transform="translate(24.024688 85.014849) rotate(-90) scale(0.14 -0.14)">
      <defs>
       <path id="DejaVuSans-25" d="M 4653 2053 
Q 4381 2053 4226 1822 
Q 4072 1591 4072 1178 
Q 4072 772 4226 539 
Q 4381 306 4653 306 
Q 4919 306 5073 539 
Q 5228 772 5228 1178 
Q 5228 1588 5073 1820 
Q 4919 2053 4653 2053 
z
M 4653 2450 
Q 5147 2450 5437 2106 
Q 5728 1763 5728 1178 
Q 5728 594 5436 251 
Q 5144 -91 4653 -91 
Q 4153 -91 3862 251 
Q 3572 594 3572 1178 
Q 3572 1766 3864 2108 
Q 4156 2450 4653 2450 
z
M 1428 4353 
Q 1159 4353 1004 4120 
Q 850 3888 850 3481 
Q 850 3069 1003 2837 
Q 1156 2606 1428 2606 
Q 1700 2606 1854 2837 
Q 2009 3069 2009 3481 
Q 2009 3884 1853 4118 
Q 1697 4353 1428 4353 
z
M 4250 4750 
L 4750 4750 
L 1831 -91 
L 1331 -91 
L 4250 4750 
z
M 1428 4750 
Q 1922 4750 2215 4408 
Q 2509 4066 2509 3481 
Q 2509 2891 2217 2550 
Q 1925 2209 1428 2209 
Q 931 2209 642 2551 
Q 353 2894 353 3481 
Q 353 4063 643 4406 
Q 934 4750 1428 4750 
z
" transform="scale(0.015625)"/>
      </defs>
      <use xlink:href="#DejaVuSans-25"/>
     </g>
    </g>
   </g>
   <g id="line2d_27">
    <path d="M 658.046941 145.92751 
L 658.046941 10.8 
" clip-path="url(#p2374663952)" style="fill: none; stroke-dasharray: 5.55,2.4; stroke-dashoffset: 0; stroke: #ff0000; stroke-width: 1.5"/>
   </g>
   <g id="line2d_28">
    <path d="M 121.701678 145.92751 
L 121.701678 10.8 
" clip-path="url(#p2374663952)" style="fill: none; stroke-dasharray: 5.55,2.4; stroke-dashoffset: 0; stroke: #ff0000; stroke-width: 1.5"/>
   </g>
   <g id="line2d_29">
    <path d="M 422.960543 145.92751 
L 422.960543 10.8 
" clip-path="url(#p2374663952)" style="fill: none; stroke-dasharray: 5.55,2.4; stroke-dashoffset: 0; stroke: #808080; stroke-width: 1.5"/>
   </g>
   <g id="line2d_30">
    <path d="M 356.788076 145.92751 
L 356.788076 10.8 
" clip-path="url(#p2374663952)" style="fill: none; stroke-dasharray: 5.55,2.4; stroke-dashoffset: 0; stroke: #808080; stroke-width: 1.5"/>
   </g>
   <g id="patch_136">
    <path d="M 72.29 145.92751 
L 72.29 10.8 
" style="fill: none; stroke: #000000; stroke-width: 0.8; stroke-linejoin: miter; stroke-linecap: square"/>
   </g>
   <g id="patch_137">
    <path d="M 709.2 145.92751 
L 709.2 10.8 
" style="fill: none; stroke: #000000; stroke-width: 0.8; stroke-linejoin: miter; stroke-linecap: square"/>
   </g>
   <g id="patch_138">
    <path d="M 72.29 145.92751 
L 709.2 145.92751 
" style="fill: none; stroke: #000000; stroke-width: 0.8; stroke-linejoin: miter; stroke-linecap: square"/>
   </g>
   <g id="patch_139">
    <path d="M 72.29 10.8 
L 709.2 10.8 
" style="fill: none; stroke: #000000; stroke-width: 0.8; stroke-linejoin: miter; stroke-linecap: square"/>
   </g>
  </g>
 </g>
 <defs>
  <clipPath id="p2374663952">
   <rect x="72.29" y="10.8" width="636.91" height="135.12751"/>
  </clipPath>
 </defs>
</svg>
