<?xml version="1.0" encoding="UTF-8" standalone="no"?>
<svg width="100" height="100" version="1.1" xmlns="http://www.w3.org/2000/svg" >
    <g style="stroke:#333333;stroke-width:1;fill:#3366cc;fill-opacity:0.8" transform="translate(-54.144531,-54.144531)" >
        <path transform="rotate(45)" d="M 84.350105 -7.0710678 A 10 10 0 0 0 84.350105 7.0710678 A 10 10 0 0 0 91.421173 9.9989318 L 131.42242 9.9989318 L 131.42242 50.000183 A 10 10 0 0 0 134.35029 57.071251 A 10 10 0 0 0 148.49242 57.071251 A 10 10 0 0 0 151.42029 50.000183 L 151.42167 49.990516 A 10 10 0 0 0 151.42029 49.9698 L 151.42029 9.9989318 L 191.42154 9.9989318 A 10 10 0 0 0 198.49261 7.0710678 A 10 10 0 0 0 198.49261 -7.0710678 A 10 10 0 0 0 191.42154 -9.9989318 L 151.42029 -9.9989318 L 151.42029 -49.9698 L 151.42167 -49.990516 A 10 10 0 0 0 151.42029 -50.000183 A 10 10 0 0 0 148.49242 -57.071251 A 10 10 0 0 0 134.35029 -57.071251 A 10 10 0 0 0 131.42242 -50.000183 L 131.42242 -9.9989318 L 91.421173 -9.9989318 A 10 10 0 0 0 84.350105 -7.0710678 z " />
    </g>
</svg>
