<?xml version="1.0" encoding="UTF-8" standalone="no" ?>
<svg width="100" height="100" version="1.1" xmlns="http://www.w3.org/2000/svg" >
  <g style="stroke:#333333;stroke-width:1;fill:#3366cc;fill-opacity:0.8" transform="translate(-54.144531,-54.144531)" >
    <path transform="rotate(45)"  d="M 84.350105 -7.0710678 A 10 10 0 0 0 84.350105 7.0710678 A 10 10 0 0 0 91.421173 9.9989318 L 191.42154 9.9989318 A 10 10 0 0 0 198.49261 7.0710678 A 10 10 0 0 0 198.49261 -7.0710678 A 10 10 0 0 0 191.42154 -9.9989318 L 91.421173 -9.9989318 A 10 10 0 0 0 84.350105 -7.0710678 z " />
    <path transform="rotate(-45)" d="m 57.071251,134.35029 a 10,10 0 0 0 -7.071068,-2.92787 H -50.000183 a 10,10 0 0 0 -7.071068,2.92787 10,10 0 0 0 0,14.14213 10,10 0 0 0 7.071068,2.92787 l 0.0097,0.001 a 10,10 0 0 0 0.02072,-0.001 h 99.9396 l 0.02072,0.001 a 10,10 0 0 0 0.0097,-0.001 10,10 0 0 0 7.071068,-2.92787 10,10 0 0 0 0,-14.14213 z" />
  </g>
</svg>
