<?xml version="1.0" encoding="UTF-8"?><svg id="Icons" xmlns="http://www.w3.org/2000/svg" viewBox="0 0 24 24"><defs><style>.cls-1{fill:#6d6e71;}</style></defs><path class="cls-1" d="M12.03,18.01c.35,0,.65-.12.89-.36.24-.24.36-.54.36-.89s-.12-.65-.36-.89c-.24-.24-.54-.36-.89-.36s-.65.12-.89.36-.36.54-.36.89.12.65.36.89c.24.24.54.36.89.36ZM11.13,14.15h1.85c0-.6.07-1.04.2-1.33s.42-.64.85-1.08c.58-.58,1-1.07,1.24-1.46s.36-.84.36-1.34c0-.88-.3-1.6-.9-2.14s-1.41-.81-2.43-.81c-.92,0-1.7.23-2.34.68s-1.09,1.08-1.34,1.88l1.65.65c.12-.45.35-.81.7-1.09s.76-.41,1.23-.41.83.12,1.13.36.45.56.45.96c0,.28-.09.58-.28.9s-.49.67-.93,1.05c-.55.48-.93.95-1.14,1.39s-.31,1.04-.31,1.79ZM5.02,21.01c-.55,0-1.02-.2-1.41-.59-.39-.39-.59-.86-.59-1.41V5c0-.55.2-1.02.59-1.41.39-.39.86-.59,1.41-.59h14.01c.55,0,1.02.2,1.41.59s.59.86.59,1.41v14.01c0,.55-.2,1.02-.59,1.41-.39.39-.86.59-1.41.59H5.02Z"/></svg>