<?xml version="1.0" encoding="UTF-8"?><svg id="Icons" xmlns="http://www.w3.org/2000/svg" viewBox="0 0 24 24"><defs><style>.cls-1{fill:#6d6e71;}</style></defs><path class="cls-1" d="M11.88,22.03c-.27,0-.52-.05-.76-.15s-.46-.24-.66-.43L2.43,13.43c-.18-.2-.33-.42-.43-.66s-.15-.5-.15-.76.05-.53.15-.78.24-.47.43-.65L10.46,2.55c.2-.2.42-.35.66-.44s.5-.14.76-.14.53.05.78.14.47.24.65.44l8.03,8.03c.2.18.35.4.44.65s.14.51.14.78-.05.52-.14.76-.24.46-.44.66l-8.03,8.03c-.18.18-.4.33-.65.43s-.51.15-.78.15ZM11.88,20.03l8.03-8.03L11.88,3.97,3.86,12l8.03,8.03ZM10.88,13h2v-6h-2v6ZM11.88,16c.28,0,.52-.1.71-.29.19-.19.29-.43.29-.71s-.1-.52-.29-.71c-.19-.19-.43-.29-.71-.29s-.52.1-.71.29-.29.43-.29.71.1.52.29.71.43.29.71.29Z"/></svg>