<?xml version="1.0" encoding="UTF-8"?><svg id="Icons" xmlns="http://www.w3.org/2000/svg" viewBox="0 0 24 24"><defs><style>.cls-1{fill:#6d6e71;}</style></defs><rect class="cls-1" x="8.99" y="9" width="6.02" height="2"/><path class="cls-1" d="M4.99,9.56c.67,0,1.42,1.03,1.42,2.42s-.75,2.42-1.42,2.42-1.42-1.03-1.42-2.42.75-2.42,1.42-2.42M4.99,7.96c-1.67,0-3.02,1.8-3.02,4.02s1.35,4.02,3.02,4.02,3.02-1.8,3.02-4.02-1.35-4.02-3.02-4.02h0Z"/><rect class="cls-1" x="8.99" y="13.01" width="6.02" height="2"/><path class="cls-1" d="M18.93,9.58c.67,0,1.42,1.03,1.42,2.42s-.75,2.42-1.42,2.42-1.42-1.03-1.42-2.42.75-2.42,1.42-2.42M18.93,7.98c-1.67,0-3.02,1.8-3.02,4.02s1.35,4.02,3.02,4.02,3.02-1.8,3.02-4.02-1.35-4.02-3.02-4.02h0Z"/></svg>