<?xml version="1.0" encoding="utf-8"?>
<!-- Generator: Adobe Illustrator 27.0.1, SVG Export Plug-In . SVG Version: 6.00 Build 0)  -->
<svg version="1.1" id="Layer_1" xmlns="http://www.w3.org/2000/svg" xmlns:xlink="http://www.w3.org/1999/xlink" x="0px" y="0px"
	 viewBox="0 0 510.49 452.64" style="enable-background:new 0 0 510.49 452.64;" xml:space="preserve">
<style type="text/css">
	.st0{fill-rule:evenodd;clip-rule:evenodd;fill:#FDC409;}
	.st1{fill:#FFFFFF;}
	.st2{fill:#FDB409;}
	.st3{fill:#E6E6E6;}
	.st4{fill:#0B61CC;}
	.st5{fill:#0078D4;}
</style>
<g>
	<polygon class="st1" points="149.65,235.69 142.41,305.5 311.93,306.96 307.71,235.69 243.75,218.28 196.33,224.83 	"/>
	<polygon class="st3" points="301.29,227.75 301.29,306.41 348.78,306.96 351.45,302.57 346.83,251.58 	"/>
	<g>
		<path class="st4" d="M212.2,363.11l-5.42,17.9h-7.52c-1.75-5.09-3.43-10.22-5.04-15.39c-1.62-5.17-3.2-10.3-4.76-15.39h9.86
			c1.41,5.43,2.87,10.87,4.39,16.3l4.67-15.5h7.98l4.67,15.56c0.8-2.74,1.57-5.47,2.31-8.21c0.74-2.74,1.45-5.45,2.14-8.15h9.4
			c-1.52,5.09-3.1,10.22-4.73,15.39c-1.63,5.17-3.33,10.3-5.07,15.39h-7.52L212.2,363.11z"/>
		<path class="st4" d="M239.74,345.75c-1.18-1.04-1.77-2.37-1.77-3.96c0-1.6,0.59-2.92,1.77-3.96c1.18-1.04,2.64-1.57,4.39-1.57
			c1.79,0,3.26,0.52,4.42,1.57c1.16,1.05,1.74,2.37,1.74,3.96c0,1.6-0.58,2.92-1.74,3.96c-1.16,1.05-2.63,1.57-4.42,1.57
			C242.38,347.32,240.91,346.8,239.74,345.75z M238.77,350.23h10.72v30.78h-10.72V350.23z"/>
		<path class="st4" d="M255.64,350.23h10.54v3.65c0.84-1.37,1.97-2.44,3.39-3.22c1.42-0.78,3.07-1.17,4.93-1.17
			c3.04,0,5.47,1.02,7.3,3.05c1.82,2.03,2.74,4.76,2.74,8.18v20.29h-10.72V361.8c0-2.85-1.14-4.27-3.42-4.27
			c-0.87,0-1.67,0.21-2.39,0.63c-0.72,0.42-1.27,0.99-1.65,1.71v21.15h-10.72V350.23z"/>
		<path d="M292.86,357.81h-5.13v-7.58h5.13v-5.36l10.72-4.79v10.15h7.12v7.58h-7.12v11.63c0,1.44,0.26,2.52,0.77,3.22
			c0.51,0.7,1.36,1.05,2.54,1.05c0.76,0,1.53-0.14,2.31-0.43c0.78-0.28,1.47-0.64,2.08-1.05l-0.57,8.21c-0.95,0.46-2,0.79-3.16,1
			c-1.16,0.21-2.29,0.31-3.39,0.31c-3.84,0-6.68-0.9-8.52-2.71c-1.84-1.8-2.76-4.51-2.76-8.12V357.81z"/>
		<path d="M343.02,375.65c0,0.87,0.06,1.83,0.17,2.88c0.11,1.05,0.25,1.87,0.4,2.48h-10.03c-0.19-0.42-0.34-0.99-0.46-1.71
			c-0.11-0.72-0.21-1.44-0.29-2.17c-0.84,1.56-2,2.72-3.5,3.48c-1.5,0.76-3.2,1.14-5.1,1.14c-2.74,0-4.96-0.83-6.67-2.48
			c-1.71-1.65-2.57-3.87-2.57-6.64c0-3.08,1.32-5.58,3.96-7.5c2.64-1.92,6.49-3.12,11.54-3.62l1.82-0.17
			c-0.27-2.85-2.17-4.27-5.7-4.27c-1.41,0-2.89,0.25-4.45,0.74c-1.56,0.49-3.02,1.27-4.39,2.34l-0.57-8.09
			c1.56-0.8,3.33-1.42,5.33-1.88s3.98-0.68,5.96-0.68c4.75,0,8.36,1.11,10.83,3.33c2.47,2.22,3.71,5.46,3.71,9.72V375.65z
			 M325.46,371.54c0,0.95,0.29,1.72,0.85,2.31c0.57,0.59,1.29,0.88,2.17,0.88c0.72,0,1.43-0.18,2.11-0.54
			c0.68-0.36,1.25-0.92,1.71-1.68v-5.59h-0.17c-2.43,0.27-4.15,0.79-5.16,1.57C325.97,369.27,325.46,370.29,325.46,371.54z"/>
		<path d="M349.35,350.23h10.54v3.7c0.8-1.37,1.91-2.45,3.33-3.25c1.42-0.8,3.09-1.2,4.99-1.2c2.36,0,4.42,0.65,6.18,1.94
			c1.77,1.29,3.15,3.15,4.16,5.56c1.01,2.41,1.51,5.29,1.51,8.64c0,3.34-0.5,6.22-1.51,8.64c-1.01,2.41-2.4,4.27-4.19,5.56
			c-1.79,1.29-3.86,1.94-6.21,1.94c-1.79,0-3.38-0.37-4.79-1.11c-1.41-0.74-2.51-1.76-3.31-3.05v15.79h-10.72V350.23z
			 M364.22,373.71c1.56,0,2.76-0.68,3.62-2.05c0.85-1.37,1.28-3.38,1.28-6.04c0-2.7-0.44-4.72-1.31-6.07
			c-0.87-1.35-2.09-2.02-3.65-2.02c-1.9,0-3.27,0.78-4.1,2.34v11.51C360.94,372.93,362.32,373.71,364.22,373.71z"/>
	</g>
	<path class="st3" d="M366.98,326.62H142.41c-5.81,0-10.56-4.75-10.56-10.56l0,0c0-5.81,4.75-10.56,10.56-10.56h224.57
		c5.81,0,10.56,4.75,10.56,10.56l0,0C377.54,321.86,372.79,326.62,366.98,326.62z"/>
	<path class="st3" d="M437.65,241.82c-0.38-21.07-6.01-41.02-13.57-60.46c-14.62-37.57-37.34-68.68-72.93-89.02
		c-34.07-19.48-70.91-24.9-109.28-19.14c-64.23,9.64-115.89,40.75-154.44,93.15c-9.4,12.78-17.05,26.65-21.41,42.07
		c-3.07,10.88-0.69,18.06,9.3,23.39c6.94,3.7,14.68,6.15,22.32,8.22c6.99,1.89,14.33,2.52,21.87,3.76l19.58,4.54l5.54-5.72
		c23.5-9.01,38.69-16.26,63.74-17.37c43.31-1.93,84.97,5.38,124.48,23.67c2.31,1.07,4.39,2.77,6.78,3.53
		c8.99,2.89,12.4,8.9,13.24,18.29c0.12,1.34,0.26,2.68,0.4,4.02l10.9,0.16c-0.02-0.18,1.9,0.07,1.88-0.11c1.87,0,3.61-0.01,5.34,0
		c16.74,0.14,33.17-1.87,48.94-7.73C435.23,261.52,437.93,257.56,437.65,241.82z"/>
	<path class="st4" d="M417,231.17c-0.33-18.34-5.23-35.71-11.82-52.63c-12.73-32.71-32.51-59.79-63.49-77.5
		c-29.66-16.96-61.73-21.68-95.14-16.67c-55.91,8.39-100.89,35.48-134.45,81.1c-8.19,11.13-14.84,23.2-18.64,36.63
		c-2.68,9.47-0.6,15.72,8.1,20.36c6.04,3.22,12.78,5.36,19.43,7.15c6.09,1.65,12.47,2.19,19.04,3.27
		c-1.73,24.57-3.44,48.95-5.18,73.65v1.68c0,4.31,3.5,7.81,7.81,7.81c69.88,0.01,139.76,0.01,209.64,0.03
		c4.84,0,8.61-4.22,8.04-9.03l-0.07-0.56c-1.89-15.67-3.75-31.03-5.62-46.58c1.63,0,3.14-0.01,4.65,0
		c14.58,0.13,28.88-1.63,42.6-6.73C414.89,248.32,417.24,244.88,417,231.17z M144.81,303.29c0.39-6.09,0.77-12.19,1.24-18.28
		c1.28-16.43,2.47-32.88,3.6-49.32c0.22-3.18,1.21-4.74,4.26-5.91c20.46-7.85,41.67-12.08,63.48-13.05
		c37.71-1.68,73.97,4.68,108.37,20.61c2.01,0.93,2.01,0.93,5.9,3.08c7.2,3.97,10.8,7.75,11.53,15.92
		c1.36,15.22,3.91,30.34,5.95,45.5c0,0.01,0,0.02,0,0.04c0.29,2.2-1.44,4.14-3.66,4.14H147.35
		C145.88,306.01,144.71,304.77,144.81,303.29z"/>
	<path class="st1" d="M179.46,203.77h-30.95c-3.92,0-7.09-3.18-7.09-7.09v-30.95c0-3.92,3.18-7.09,7.09-7.09h30.95
		c3.92,0,7.09,3.18,7.09,7.09v30.95C186.55,200.6,183.38,203.77,179.46,203.77z"/>
	<path class="st1" d="M329.68,196.07h-50.74c-3.79,0-6.87-3.08-6.87-6.87v-50.74c0-3.79,3.08-6.87,6.87-6.87h50.74
		c3.79,0,6.87,3.08,6.87,6.87v50.74C336.55,193,333.48,196.07,329.68,196.07z"/>
	<g>
		<g>
			<path class="st5" d="M168.24,350.16l-8.69-12.8c-0.95-1.4-2.52-2-3.49-1.34c-0.98,0.66-1,2.34-0.04,3.74l8.69,12.8
				c0.95,1.4,2.52,2,3.49,1.34C169.17,353.23,169.19,351.56,168.24,350.16z"/>
		</g>
		<g>
			<path class="st5" d="M141.26,340.19c-0.44-0.65-1.05-1.18-1.74-1.45c-1.36-0.52-2.48,0.24-2.5,1.7l-0.16,13.33
				c-0.02,1.46,1.07,3.07,2.44,3.59c1.36,0.52,2.48-0.24,2.5-1.7l0.16-13.33C141.97,341.6,141.7,340.84,141.26,340.19z"/>
		</g>
		<g>
			<path class="st5" d="M122.01,325.93c-0.95-1.4-2.52-2-3.49-1.34l-8.91,6.05c-0.98,0.66-1,2.34-0.04,3.74
				c0.95,1.4,2.52,2,3.49,1.34l8.91-6.05C122.94,329.01,122.96,327.34,122.01,325.93z"/>
		</g>
		<g>
			<path class="st5" d="M113.08,302.95c-0.44-0.65-1.06-1.18-1.74-1.45l-12.45-4.78c-1.36-0.52-2.48,0.24-2.5,1.7
				c-0.02,1.46,1.07,3.07,2.44,3.59l12.45,4.78c1.36,0.52,2.48-0.24,2.5-1.7C113.79,304.36,113.52,303.6,113.08,302.95z"/>
		</g>
		<g>
			<path class="st5" d="M119.7,284.69l-8.69-12.8c-0.95-1.4-2.52-2-3.49-1.34c-0.98,0.66-1,2.34-0.04,3.74l8.69,12.8
				c0.95,1.4,2.52,2,3.49,1.34C120.64,287.77,120.66,286.09,119.7,284.69z"/>
		</g>
	</g>
	<path class="st1" d="M201.03,110.09c0,3.63,2.94,6.57,6.57,6.57h44.72c3.63,0,6.57-2.94,6.57-6.57V73.31
		c-21.34,1-44.96,5.38-57.87,9.54V110.09z"/>
	<path class="st1" d="M417.66,171.87h-29.25c-3.94,0-7.13,3.19-7.13,7.13v57.2c0,3.94,3.19,7.13,7.13,7.13h43.77L417.66,171.87z"/>
	<g>
		<path class="st3" d="M331.67,240.42c-3.89-2.14-3.89-2.14-5.9-3.08c-34.4-15.93-70.66-22.29-108.37-20.61
			c-21.81,0.97-43.02,5.2-63.48,13.05c-3.05,1.17-4.04,2.73-4.26,5.91c-0.12,1.71-0.24,3.41-0.36,5.12
			c20.94-8.16,35.73-14.53,59.09-15.57c43.31-1.93,84.97,5.38,124.48,23.67c2.31,1.07,4.39,2.77,6.78,3.53
			c1.16,0.37,2.22,0.8,3.19,1.27C341.59,247.31,338.04,243.93,331.67,240.42z"/>
		<path class="st3" d="M437.65,241.82c-0.38-21.07-6.01-41.02-13.57-60.46c-14.62-37.57-37.34-68.68-72.93-89.02
			c-34.07-19.48-70.91-24.9-109.28-19.14c-64.23,9.64-115.89,40.75-154.44,93.15c-9.4,12.78-17.05,26.65-21.41,42.07
			c-3.07,10.88-0.69,18.06,9.3,23.39c6.94,3.7,14.68,6.15,22.32,8.22c6.99,1.89,14.33,2.52,21.87,3.76l19.44,4.51
			c0.36-5.13,0.72-10.27,1.08-15.41c-6.57-1.08-12.95-1.63-19.04-3.27c-6.65-1.8-13.39-3.93-19.43-7.15
			c-8.7-4.65-10.77-10.89-8.1-20.36c3.79-13.43,10.45-25.5,18.64-36.63c33.56-45.62,78.54-72.71,134.45-81.1
			c33.4-5.01,65.48-0.29,95.14,16.67c30.98,17.71,50.76,44.79,63.49,77.5c6.59,16.92,11.49,34.3,11.82,52.63
			c0.25,13.71-2.1,17.15-15.08,21.98c-13.73,5.1-28.03,6.86-42.6,6.73c-1.51-0.01-3.02,0-4.65,0c0.61,5.02,1.21,10.02,1.81,15.01
			l7.69,0.01c-0.02-0.18,5.48-0.12,7.22-0.11c16.74,0.14,33.17-1.87,48.94-7.73C435.23,261.52,437.93,257.56,437.65,241.82z"/>
	</g>
	<g>
		<ellipse cx="196.34" cy="243.67" rx="16.46" ry="26.16"/>
		<ellipse cx="196.33" cy="243.67" rx="11.86" ry="18.84"/>
		<ellipse class="st1" cx="191.26" cy="234.41" rx="6.03" ry="9.58"/>
	</g>
	<g>
		<ellipse cx="254.87" cy="243.67" rx="16.46" ry="26.16"/>
		<ellipse cx="254.85" cy="243.67" rx="11.86" ry="18.84"/>
		<ellipse class="st1" cx="249.78" cy="234.41" rx="6.03" ry="9.58"/>
	</g>
</g>
</svg>
