<?xml version="1.0" encoding="UTF-8"?>
<!DOCTYPE svg PUBLIC "-//W3C//DTD SVG 1.1//EN" "http://www.w3.org/Graphics/SVG/1.1/DTD/svg11.dtd">
<!-- Creator: CorelDRAW -->
<svg xmlns="http://www.w3.org/2000/svg" xml:space="preserve" width="2048px" height="2048px" style="shape-rendering:geometricPrecision; text-rendering:geometricPrecision; image-rendering:optimizeQuality; fill-rule:evenodd; clip-rule:evenodd"
viewBox="0 0 2048 2048"
 xmlns:xlink="http://www.w3.org/1999/xlink">
 <defs>
  <style type="text/css">
   <![CDATA[
    .fil1 {fill:none}
    .fil0 {fill:#FFCA28}
    .fil2 {fill:#FFFFFE}
   ]]>
  </style>
 </defs>
 <g id="Layer_x0020_1">
  <metadata id="CorelCorpID_0Corel-Layer"/>
  <rect class="fil0" width="2048" height="2048" rx="256.001" ry="256.001"/>
  <rect class="fil1" x="255.999" y="255.999" width="1536" height="1536"/>
  <path class="fil2" d="M415.999 351.998l1216 0c35.2335,0 67.2426,14.3917 90.4241,37.5756 23.1839,23.1839 37.5756,55.1918 37.5756,90.4241l0 928.003c0,35.2323 -14.3917,67.2402 -37.5756,90.4241 -23.1839,23.1839 -55.1918,37.5756 -90.4241,37.5756l-141.663 0 -104.111 253.894 -18.326 44.6894 -33.9248 -34.4398 -260.199 -264.143 -657.779 0c-35.2323,0 -67.2402,-14.3917 -90.4241,-37.5756 -23.1839,-23.1815 -37.5756,-55.1906 -37.5756,-90.4241l0 -928.003c0,-35.2323 14.3917,-67.2414 37.5744,-90.4253 23.1839,-23.1827 55.193,-37.5744 90.4253,-37.5744zm181.507 512l193.135 0c13.4162,0 25.611,5.70591 34.3949,14.8358 8.48032,8.80985 13.7764,20.8689 13.7764,33.9685l0 350.401 -2.3752 12c-1.39606,3.42874 -1.06772,2.54173 -1.17992,2.8441 -7.04056,18.9095 -12.6413,33.952 -44.6162,33.952l-193.135 0c-13.4197,0 -25.6134,-5.72481 -34.4055,-14.8382 -8.49686,-8.80512 -13.8,-20.8831 -13.8,-33.9579l0 -350.491c0,-13.0925 5.35158,-25.1882 13.9193,-34.0264 8.75198,-9.02599 20.8996,-14.6882 34.2862,-14.6882zm850.081 -101.824c30.8799,14.1437 51.4642,40.2969 50.9811,90.4394l0 0.624804 -11.4047 390.423 -4.6252 15.6248c-10.5614,17.4402 -24.8977,30.4429 -41.452,39.1949 -17.178,9.0815 -36.4949,13.5189 -56.1827,13.5189l-459.134 0c-13.1788,0 -25.2614,-5.49331 -34.0418,-14.2937 -8.70946,-8.73072 -14.1543,-20.7626 -14.1543,-33.9414l0 -348.616c0,-13.1894 63.6804,-105.862 126.228,-196.893 49.3181,-71.7768 97.8922,-142.468 110.43,-162.892l0.125197 -0.125197c1.96417,-3.17717 5.59134,-9.78662 9.45591,-16.8307 9.01654,-16.4327 19.2248,-35.0351 30.0107,-46.0288 25.8768,-26.3988 57.28,-36.9177 87.0485,-34.3465 19.0063,1.64173 37.174,8.69056 52.7138,20.4213 15.1134,11.4083 27.6071,27.1583 35.7343,46.5201 14.7142,35.0516 15.2563,82.1965 -9.86576,136.065l-0.0484252 -0.022441c-13.5768,29.1709 -35.0681,58.7327 -57.0721,86.6481l17.9221 0.325985 82.9158 1.46929c29.2075,0.477166 58.7552,0.960237 84.4158,12.7134z"/>
 </g>
</svg>
